<svg id="new" width="44" height="42" fill="red" xmlns="http://www.w3.org/2000/svg">
    <path
        d="M6.726 40.401c.016 0 .032.004.046.01a.121.121 0 01.039.024l.218.208c-.17.169-.379.304-.614.396a2.39 2.39 0 01-.87.142c-.28.005-.558-.04-.817-.133a1.793 1.793 0 01-.616-.374 1.673 1.673 0 01-.399-.578 1.926 1.926 0 01-.139-.742 1.724 1.724 0 01.573-1.322c.186-.163.409-.291.654-.376.269-.09.555-.136.843-.133.267-.006.533.035.782.12.216.082.415.195.587.335l-.183.222a.178.178 0 01-.047.04.124.124 0 01-.073.017.178.178 0 01-.08-.023l-.097-.06-.137-.075a1.553 1.553 0 00-.43-.133 1.902 1.902 0 00-.325-.024 1.761 1.761 0 00-.605.1c-.18.063-.341.158-.475.28-.136.128-.24.28-.308.445a1.499 1.499 0 00-.111.587 1.53 1.53 0 00.111.597c.067.164.17.314.303.443.125.12.28.215.453.275.178.064.369.097.561.095.111.002.223-.005.333-.019a1.316 1.316 0 00.72-.306.171.171 0 01.103-.038zM13.024 39.354c.004.251-.046.501-.147.737a1.594 1.594 0 01-.41.572 1.892 1.892 0 01-.645.375 2.655 2.655 0 01-1.658 0 1.913 1.913 0 01-.64-.376 1.678 1.678 0 01-.415-.578 1.922 1.922 0 010-1.476c.093-.216.234-.413.415-.58.182-.159.4-.282.64-.363a2.61 2.61 0 011.658 0c.242.085.461.214.643.376.18.165.32.36.412.571.101.238.151.489.147.742zm-.572 0a1.566 1.566 0 00-.104-.592 1.218 1.218 0 00-.752-.723 1.918 1.918 0 00-1.205 0 1.297 1.297 0 00-.461.28 1.191 1.191 0 00-.295.443 1.738 1.738 0 000 1.184 1.21 1.21 0 00.756.72c.388.127.816.127 1.205 0 .175-.061.332-.156.46-.277.131-.129.23-.28.292-.443.073-.19.108-.391.104-.592zM17.321 39.975l.057.132c.022-.047.041-.09.063-.132a1.21 1.21 0 01.071-.13l1.393-2.201c.028-.038.052-.062.08-.069a.373.373 0 01.114-.012h.412v3.58h-.488V38.51 38.4a.936.936 0 010-.124l-1.402 2.232a.204.204 0 01-.082.081.246.246 0 01-.12.03h-.079a.243.243 0 01-.12-.03.2.2 0 01-.081-.081l-1.443-2.246V41.135h-.471v-3.572h.411a.373.373 0 01.115.012c.034.015.06.039.076.069l1.423 2.203c.028.04.052.083.071.128zM22.564 39.797v1.34h-.545v-3.574h1.216a2.6 2.6 0 01.679.078c.176.044.34.12.48.223a.922.922 0 01.272.35c.065.146.096.302.093.458a.991.991 0 01-.395.815c-.14.107-.305.188-.483.237a2.307 2.307 0 01-.657.082l-.66-.01zm0-.384h.66c.143.002.286-.017.423-.054a.92.92 0 00.305-.154.686.686 0 00.25-.538.604.604 0 00-.054-.291.69.69 0 00-.19-.244 1.172 1.172 0 00-.734-.192h-.66v1.473zM29.893 41.142h-.43a.205.205 0 01-.12-.033.223.223 0 01-.072-.083l-.37-.864h-1.863l-.384.864a.203.203 0 01-.19.116h-.432l1.636-3.58h.567l1.658 3.58zm-2.7-1.329h1.539l-.65-1.457c-.049-.11-.09-.221-.122-.336l-.063.187c-.019.057-.04.11-.06.152l-.643 1.454zM32.249 37.58c.032.015.06.037.081.064l2.386 2.698v-.126-2.653h.488v3.58h-.272a.264.264 0 01-.112-.022.296.296 0 01-.087-.066l-2.383-2.696a.974.974 0 010 .123V41.142h-.488v-3.58h.289a.26.26 0 01.098.018zM39.223 39.719v1.421h-.545V39.72l-1.508-2.156h.488a.197.197 0 01.117.03c.03.024.055.051.074.081l.943 1.391c.038.06.071.114.098.166.028.052.05.102.069.151l.07-.154c.027-.056.058-.11.093-.163l.93-1.4a.37.37 0 01.07-.076.182.182 0 01.118-.035h.493l-1.51 2.165zM17.051 31.556c.238.026.478.048.72.066 3.679-1.43 6.791-3.77 8.948-6.728 2.156-2.958 3.261-6.403 3.177-9.903l-4.055-3.523c.825 3.727.44 7.58-1.113 11.128s-4.21 6.65-7.677 8.96z"
        fill="currentcolor" />
    <path
        d="M15.604 31.392l.109.02c3.704-2.303 6.528-5.517 8.106-9.228 1.579-3.711 1.84-7.749.75-11.59l-5.775-5.017c2.335 4.124 3.276 8.74 2.71 13.31-.564 4.57-2.61 8.906-5.9 12.505zM35.188 19.127c-.981 3.846-3.364 7.315-6.795 9.892a21.62 21.62 0 01-3.228 2.013c2.794-.713 5.361-1.974 7.505-3.686s3.807-3.829 4.86-6.187l-2.342-2.032z"
        fill="currentcolor" />
    <path
        d="M34.269 18.56l-3.334-2.897c-.064 3.303-1.145 6.531-3.13 9.348-1.986 2.818-4.804 5.122-8.16 6.673h.016a21.8 21.8 0 002.238-.116c3.137-1.113 5.909-2.883 8.067-5.153 2.159-2.27 3.637-4.968 4.303-7.855zM16.086 3.461L12.108 0C8.552 1.194 5.494 3.293 3.333 6.022 1.173 8.752.011 11.984 0 15.296c.013 3.66 1.431 7.212 4.03 10.093 2.597 2.881 6.227 4.927 10.314 5.814 3.648-3.862 5.784-8.634 6.098-13.623.313-4.99-1.213-9.935-4.356-14.119zM43.46 18.027c-.014-4.342-2.006-8.503-5.54-11.574-3.535-3.07-8.324-4.801-13.322-4.813a21.18 21.18 0 00-6.753 1.092L42.2 23.892a14.353 14.353 0 001.26-5.865z"
        fill="currentcolor" />
</svg>